<?xml version="1.0" encoding="utf-8"?>
<!-- Generator: Adobe Illustrator 24.2.3, SVG Export Plug-In . SVG Version: 6.00 Build 0)  -->
<svg version="1.1" id="图层_1" xmlns="http://www.w3.org/2000/svg" xmlns:xlink="http://www.w3.org/1999/xlink" x="0px" y="0px"
	 viewBox="0 0 1461.4 871.3" style="enable-background:new 0 0 1461.4 871.3;" xml:space="preserve">
<style type="text/css">
	.st0{fill:#FFFFFF;}
	.st1{fill:#007AFF;}
	.st2{fill:#FF9500;}
	.st3{fill:#BFDEFF;}
	.st4{fill:#80BCFF;}
</style>
<path class="st0" d="M321.2,592.7l15.5,78.2h-5.6l19.1-78.2h24.1l18.4,78.3H387l15.6-78.3h23.4l-23.4,89.9h-26.4l-16-65.4h3.2
	l-16.5,65.4h-26.4l-22.9-89.9H321.2z"/>
<path class="st0" d="M438.8,583.4c2.5-2.3,5.9-3.5,9.3-3.4c3.5-0.2,6.9,1.1,9.5,3.4c2.4,2.2,3.7,5.3,3.6,8.5
	c0.1,3.2-1.2,6.2-3.6,8.3c-2.6,2.3-6,3.5-9.5,3.3c-3.4,0.1-6.8-1-9.3-3.3c-2.3-2.1-3.7-5.2-3.6-8.3
	C435.2,588.7,436.5,585.6,438.8,583.4z M459.1,611.1v71.4h-21.9v-71.4H459.1z"/>
<path class="st0" d="M469.7,611.1h44.9v18h-44.9V611.1z M500.4,593.5v64.4c0,2.1,0.5,3.7,1.4,4.7s2.7,1.5,5.2,1.5h7.7v18.4h-11.1
	c-4.4,0.1-8.9-0.7-13-2.3c-3.8-1.5-7-4.3-9-7.8c-2.2-3.7-3.3-8.6-3.3-14.7v-64.1H500.4z"/>
<path class="st0" d="M548.8,587.8v94.7h-21.9v-94.7H548.8z M572.4,632.4c-2.6-2.6-6.2-4.1-9.9-3.9c-2.5-0.1-5,0.5-7.2,1.7
	c-2.1,1.2-3.8,3-4.8,5.1c-1.2,2.6-1.8,5.5-1.7,8.4l-2.8-17.8c1.1-3,2.8-5.7,5.1-7.9c2.4-2.4,5.3-4.3,8.5-5.6c3.6-1.4,7.5-2.1,11.3-2
	c5-0.1,9.9,1.1,14.2,3.5c4.1,2.5,7.4,6.1,9.5,10.4c2.4,5.1,3.5,10.8,3.4,16.5v41.7h-21.7v-38.8C576.2,638.8,574.9,635,572.4,632.4
	L572.4,632.4z"/>
<path class="st1" d="M724.8,682.5h-23.2l-26.4-78.3h8.6l-26.5,78.3h-22.9l32.5-89.9h25.3L724.8,682.5z M703.2,649.7l5.5,17h-60.3
	l5.6-17H703.2z"/>
<path class="st1" d="M819.1,682.5H796l-26.4-78.3h8.6l-26.5,78.3h-22.9l32.5-89.9h25.3L819.1,682.5z M797.5,649.7l5.5,17h-60.3
	l5.6-17H797.5z"/>
<path class="st1" d="M917.1,595.5c11.7,5,20.3,15.3,23.2,27.7h-24.1c-1-2.5-2.6-4.6-4.6-6.4c-1.9-1.7-4.1-3-6.5-3.8
	c-6.5-2.2-13.7-1.5-19.6,1.8c-3.5,2.2-6.2,5.3-7.9,9c-2,4.3-2.9,9-2.8,13.8c-0.1,4.7,0.9,9.4,2.8,13.6c1.7,3.7,4.5,6.8,7.9,9
	c3.6,2.2,7.7,3.3,11.9,3.2c2.6,0,5.3-0.4,7.7-1.3c2.4-0.9,4.6-2.2,6.5-3.8c2-1.8,3.6-3.9,4.6-6.4h24.1
	c-2.9,12.4-11.5,22.7-23.1,27.7c-12,5-25.5,5.1-37.7,0.4c-5.4-2.2-10.2-5.4-14.3-9.5c-4.1-4.1-7.3-9.1-9.3-14.5
	c-4.4-11.9-4.4-25,0-36.9c4.2-11,12.8-19.7,23.7-24c5.8-2.3,12-3.4,18.2-3.3C904.3,591.5,910.9,592.8,917.1,595.5z"/>
<path class="st1" d="M998.6,639.9c0-1.8-0.3-3.5-1-5.2c-0.7-1.5-1.7-2.8-2.9-3.8c-1.3-1.1-2.8-1.9-4.3-2.4c-1.7-0.5-3.4-0.8-5.1-0.8
	c-2.6-0.1-5.1,0.6-7.4,1.9c-2.1,1.3-3.9,3.1-5,5.4c-1.3,2.7-2,5.7-1.9,8.8v6.3c-0.1,3,0.5,6.1,1.9,8.8c1.1,2.2,2.8,4.1,5,5.2
	c2.1,1.1,4.5,1.7,6.8,1.7c2.6,0.2,5.2-0.5,7.4-2c1.7-1.3,3.1-2.9,4-4.9h23.3c-1.1,4.6-3.3,9-6.3,12.6c-3.2,3.8-7.2,6.8-11.7,8.8
	c-11.1,4.7-23.7,4.3-34.4-1.2c-5.4-3-9.8-7.4-12.8-12.8c-3.1-5.5-4.7-12-4.7-19.5s1.5-14,4.7-19.6c3-5.3,7.4-9.7,12.7-12.7
	c11.7-5.9,25.5-6,37.2-0.1c5.3,2.8,9.7,7.1,12.6,12.3c3.2,5.8,4.8,12.3,4.6,18.9c0,1,0,2.1-0.1,3.1s-0.2,2.2-0.4,3.3h-52.1v-12.2
	H998.6z"/>
<path class="st1" d="M1054.4,587.8v94.7h-21.9v-94.7H1054.4z"/>
<path class="st1" d="M1092.1,587.8v94.7h-21.9v-94.7H1092.1z"/>
<path class="st0" d="M1131.7,662.3l-14.3,36.7h-14l7.4-36.7L1131.7,662.3z"/>
<path class="st0" d="M21.9,764.7v71.4H0v-71.4H21.9z M45.6,786.5c-2.5-2.5-5.8-3.8-10-3.8c-2.5,0-5,0.5-7.2,1.7
	c-2.1,1.1-3.7,2.8-4.8,4.9c-1.2,2.5-1.8,5.2-1.7,7.9l-2.8-18.6c1-2.8,2.7-5.4,4.9-7.5c2.3-2.3,5.1-4.1,8.1-5.3c3.4-1.4,7-2,10.7-2
	c5.1-0.1,10.2,1.1,14.7,3.6c4.3,2.4,7.8,6,10,10.4c2.5,5.1,3.7,10.8,3.6,16.5v41.7H49.3v-38.8C49.3,792.6,48,789,45.6,786.5z
	 M94.7,786.5c-2.5-2.5-5.8-3.8-10-3.8c-2.5,0-5,0.5-7.2,1.7c-2.1,1.1-3.7,2.8-4.8,4.9c-1.2,2.5-1.7,5.2-1.6,7.9l-6-16.2
	c1.3-3.2,3.3-6.2,5.8-8.6c2.6-2.6,5.6-4.7,9-6.2c3.6-1.6,7.4-2.3,11.3-2.3c5.3-0.1,10.6,1.1,15.4,3.6c4.4,2.4,7.9,6,10.2,10.4
	c2.6,5.1,3.8,10.7,3.6,16.5v41.7H98.4v-38.8C98.4,792.6,97.2,789,94.7,786.5z"/>
<path class="st0" d="M172.3,765.1c2.7,0.9,5.2,2.3,7.4,4c2,1.6,3.8,3.5,5.2,5.7v-10.2h21.8v71.4h-21.8v-10.2
	c-1.4,2.2-3.2,4.1-5.2,5.7c-2.3,1.7-4.8,3.1-7.4,4c-3.1,1.1-6.3,1.6-9.6,1.5c-5.6,0.1-11.1-1.5-15.9-4.5c-4.9-3.1-8.8-7.6-11.3-12.8
	c-2.8-5.5-4.2-12-4.2-19.5c0-7.5,1.4-14,4.2-19.5c2.5-5.2,6.5-9.6,11.4-12.7c4.8-2.9,10.3-4.5,15.9-4.4
	C165.9,763.6,169.2,764.1,172.3,765.1z M161.4,784.8c-2.4,1.4-4.4,3.4-5.8,5.9c-1.5,3-2.3,6.3-2.2,9.6c-0.1,3.3,0.6,6.6,2.2,9.6
	c1.3,2.5,3.3,4.6,5.8,6.1c2.3,1.4,5,2.1,7.7,2.1c2.7,0,5.4-0.6,7.8-2c2.4-1.4,4.4-3.5,5.8-6c3-6.1,3-13.2,0-19.3
	c-1.4-2.5-3.3-4.5-5.8-6C172,782.1,166.2,782.1,161.4,784.8L161.4,784.8z"/>
<path class="st0" d="M244.3,741.4v94.7h-21.9v-94.7H244.3z M293,764.7l-31.2,37.6l-0.1-3.8l31.6,37.6H266l-26.4-36.2l26.4-35.2H293z
	"/>
<path class="st0" d="M346.5,793.5c0-1.8-0.3-3.5-1-5.2c-0.7-1.5-1.7-2.8-2.9-3.8c-1.3-1.1-2.8-1.9-4.4-2.4c-1.7-0.5-3.4-0.8-5.1-0.8
	c-2.6-0.1-5.1,0.6-7.4,1.9c-2.1,1.3-3.9,3.2-5,5.4c-1.3,2.7-2,5.7-1.9,8.8v6.3c-0.1,3,0.5,6.1,1.9,8.8c1.1,2.2,2.8,4.1,5,5.2
	c2.1,1.1,4.5,1.7,6.9,1.7c2.6,0.2,5.2-0.6,7.4-2c1.7-1.3,3.1-2.9,4-4.9h23.3c-1.1,4.6-3.3,8.9-6.4,12.6c-3.2,3.8-7.2,6.8-11.7,8.8
	c-11.1,4.7-23.7,4.3-34.4-1.2c-5.4-3-9.8-7.4-12.8-12.7c-3.1-5.5-4.7-12-4.7-19.5c0-7.5,1.5-14,4.7-19.6c3-5.3,7.4-9.7,12.7-12.7
	c11.7-5.9,25.5-6,37.2-0.1c5.3,2.8,9.7,7.1,12.6,12.3c3.2,5.8,4.8,12.3,4.7,18.9c0,1,0,2.1-0.1,3.1s-0.2,2.2-0.4,3.3h-52.1v-12.2
	H346.5z"/>
<path class="st0" d="M402.3,764.7h44.9v18h-44.9V764.7z M433.1,747.2v64.4c0,2.1,0.5,3.7,1.4,4.7s2.7,1.5,5.2,1.5h7.7v18.4h-11.2
	c-4.4,0.1-8.9-0.7-13-2.3c-3.8-1.5-7-4.3-9-7.8c-2.2-3.7-3.3-8.6-3.3-14.7v-64.1H433.1z"/>
<path class="st0" d="M481.4,741.4v94.7h-21.9v-94.7H481.4z M505.1,786c-2.6-2.6-6.2-4.1-9.9-3.9c-2.5,0-5,0.5-7.2,1.7
	c-2.1,1.2-3.8,3-4.8,5.1c-1.2,2.6-1.8,5.5-1.7,8.4l-2.8-17.8c1.1-3,2.8-5.7,5.1-7.9c2.4-2.4,5.2-4.3,8.4-5.6c3.6-1.4,7.5-2.1,11.3-2
	c5-0.1,9.9,1.1,14.3,3.6c4.1,2.5,7.4,6.1,9.5,10.4c2.4,5.1,3.5,10.8,3.4,16.5v41.7h-21.7v-38.9C508.8,792.4,507.5,788.6,505.1,786z"
	/>
<path class="st0" d="M547.5,737c2.5-2.3,5.9-3.5,9.3-3.4c3.5-0.2,6.9,1.1,9.5,3.4c2.4,2.2,3.7,5.3,3.6,8.5c0.1,3.2-1.2,6.2-3.6,8.3
	c-2.6,2.3-6,3.5-9.5,3.3c-3.4,0.2-6.8-1-9.3-3.3c-2.4-2.1-3.7-5.2-3.6-8.3C543.8,742.3,545.1,739.2,547.5,737z M567.7,764.7v71.4
	h-21.9v-71.5L567.7,764.7z"/>
<path class="st0" d="M605.4,764.7v71.4h-21.9v-71.4H605.4z M629.1,786c-2.6-2.6-6.2-4.1-9.9-3.9c-2.5,0-5,0.5-7.2,1.7
	c-2.1,1.2-3.8,3-4.8,5.1c-1.2,2.6-1.8,5.5-1.7,8.4l-2.8-17.8c1.1-3,2.8-5.7,5.1-7.9c2.4-2.4,5.2-4.3,8.4-5.6
	c8.3-3.2,17.6-2.6,25.5,1.5c4.2,2.5,7.5,6.1,9.6,10.4c2.4,5.1,3.6,10.8,3.5,16.5v41.7h-21.8v-38.8
	C632.8,792.4,631.6,788.6,629.1,786z"/>
<path class="st0" d="M706.5,765.1c2.7,0.9,5.2,2.3,7.4,4c2,1.6,3.8,3.5,5.2,5.7v-10.2h21.8V836c0,4.6-0.7,9.2-2.2,13.5
	c-1.4,4.1-3.6,8-6.5,11.3c-3,3.4-6.8,6.1-11.1,7.7c-5.1,2-10.5,2.9-16,2.8c-6.4,0.1-12.7-1-18.6-3.4c-10.2-4-17.3-13.5-18.4-24.4
	h21.6c0.7,2.7,2.5,5,4.9,6.5c2.9,1.7,6.2,2.5,9.5,2.4c2.6,0,5.2-0.5,7.5-1.6c2.3-1.1,4.3-2.9,5.4-5.2c1.4-3,2.1-6.2,2-9.5v-10.1
	c-1.4,2.1-3.2,4-5.2,5.6c-2.2,1.8-4.7,3.1-7.4,4.1c-3,1.1-6.2,1.6-9.5,1.5c-5.6,0.1-11.2-1.5-15.9-4.5c-4.9-3.2-8.8-7.6-11.4-12.8
	c-2.8-5.5-4.2-12-4.2-19.5s1.4-14,4.2-19.5c2.5-5.2,6.5-9.6,11.4-12.7c4.8-2.9,10.3-4.5,15.9-4.4
	C700.2,763.6,703.4,764.1,706.5,765.1z M695.7,784.8c-2.4,1.4-4.4,3.4-5.8,5.9c-1.5,3-2.3,6.3-2.2,9.6c-0.1,3.3,0.7,6.6,2.2,9.6
	c1.3,2.5,3.3,4.6,5.8,6.1c2.3,1.4,5,2.1,7.7,2.1c2.7,0,5.4-0.6,7.7-2c2.4-1.4,4.4-3.5,5.8-6c3-6.1,3-13.2,0-19.3
	c-1.3-2.5-3.3-4.6-5.8-6C706.3,782.1,700.4,782.1,695.7,784.8L695.7,784.8z"/>
<path class="st0" d="M769.1,833.9c-4.5-1.9-8.5-4.9-11.5-8.8c-2.8-3.6-4.3-8-4.5-12.5h21.5c0.3,2.4,1.5,4.5,3.5,6
	c2.2,1.6,4.8,2.4,7.5,2.3c1.6,0,3.2-0.2,4.7-0.8c1.1-0.4,2.1-1.1,2.9-2c0.7-0.9,1-1.9,1-3c0-1.6-0.8-3.1-2.1-3.9
	c-1.7-1.1-3.6-1.9-5.6-2.4c-2.3-0.7-4.9-1.3-7.6-1.9c-2.8-0.6-5.6-1.3-8.3-2.2c-2.7-0.9-5.3-2.1-7.6-3.7c-2.3-1.5-4.2-3.6-5.6-6
	c-1.5-2.9-2.2-6.1-2.1-9.3c0-4,1.1-7.9,3.4-11.1c2.5-3.5,5.9-6.3,9.9-8c4.9-2.1,10.3-3.1,15.6-3c6.2,0,11.5,1.1,15.8,3.2
	c4,1.9,7.5,4.9,10,8.6c2.5,3.7,3.9,8.1,4.3,12.6h-20.1c-0.3-2.3-1.4-4.4-3.3-5.9c-2.1-1.5-4.7-2.3-7.4-2.2c-1.5,0-3,0.2-4.3,0.7
	c-1,0.4-2,1-2.7,1.9c-0.6,0.8-0.9,1.9-0.9,2.9c0,1.5,0.7,3,2,3.8c1.7,1.1,3.6,1.9,5.6,2.4c2.4,0.7,4.9,1.3,7.6,2
	c2.7,0.6,5.5,1.4,8.2,2.3c2.7,0.9,5.3,2.1,7.6,3.7c2.3,1.6,4.3,3.7,5.7,6.2c3.4,6.6,2.9,14.5-1.3,20.6c-2.6,3.5-6,6.2-10,7.8
	c-4.9,2-10.1,3-15.4,2.9C780,837.3,774.3,836.2,769.1,833.9z"/>
<path class="st2" d="M915.2,768.1c4.9,3.1,8.8,7.5,11.3,12.7c2.8,5.5,4.2,12,4.2,19.5c0,7.5-1.4,14-4.2,19.5
	c-2.5,5.2-6.4,9.7-11.3,12.8c-4.7,3-10.3,4.6-15.9,4.5c-3.2,0-6.5-0.5-9.5-1.5c-2.7-0.9-5.2-2.3-7.4-4.1c-2-1.6-3.7-3.4-5.2-5.5
	v44.2h-21.9V764.7h21.9v10.1c1.4-2.2,3.1-4.1,5.2-5.7c2.2-1.7,4.7-3.1,7.4-4c3.1-1,6.3-1.5,9.5-1.5
	C904.9,763.6,910.4,765.1,915.2,768.1z M885.1,784.8c-2.4,1.4-4.4,3.5-5.8,6c-3,6.1-3,13.2,0,19.3c1.3,2.5,3.3,4.6,5.8,6
	c2.4,1.4,5,2,7.8,2c2.7,0,5.4-0.7,7.7-2.1c2.4-1.5,4.4-3.6,5.8-6.1c1.5-3,2.3-6.3,2.2-9.6c0.1-3.3-0.6-6.6-2.2-9.6
	c-1.4-2.4-3.3-4.5-5.8-5.9C895.7,782,889.8,782,885.1,784.8L885.1,784.8z"/>
<path class="st2" d="M956,832.7c-5.5-2.9-10.1-7.3-13.2-12.7c-3.2-5.5-4.8-12-4.8-19.5c0-7.5,1.6-14,4.9-19.6
	c3.2-5.4,7.8-9.8,13.3-12.7c11.9-6,25.9-6,37.8,0c5.5,2.9,10.1,7.3,13.2,12.7c3.2,5.5,4.8,12,4.8,19.6c0,7.6-1.6,14.1-4.9,19.5
	c-3.2,5.4-7.9,9.8-13.4,12.7c-5.9,3-12.4,4.6-19,4.5C968.2,837.2,961.7,835.7,956,832.7z M982.1,816.2c2.4-1.4,4.3-3.5,5.6-6
	c1.5-3,2.3-6.4,2.2-9.8c0.1-3.5-0.6-6.9-2.1-10c-1.2-2.4-3.1-4.4-5.4-5.8c-6.9-4-15.6-1.7-19.6,5.2c-0.1,0.2-0.2,0.4-0.4,0.7
	c-1.5,3.1-2.2,6.5-2.1,10c-0.1,3.4,0.6,6.8,2,9.8c1.2,2.5,3,4.5,5.3,6c2.2,1.3,4.7,2,7.2,2C977.3,818.2,979.8,817.5,982.1,816.2z"/>
<path class="st2" d="M1038.2,764.7l12.7,64.4h-5.8l15.2-64.4h23.2l15.4,64.4h-5.9l12.7-64.4h20.6l-19.3,71.4h-24.2l-14-57.2h5.4
	l-14.2,57.2h-24.3l-19.3-71.4H1038.2z"/>
<path class="st2" d="M1179.5,793.5c0-1.8-0.3-3.5-1-5.2c-0.7-1.5-1.7-2.8-3-3.8c-1.3-1.1-2.8-1.9-4.3-2.4c-1.7-0.5-3.4-0.8-5.1-0.8
	c-2.6-0.1-5.1,0.6-7.4,1.9c-2.1,1.3-3.9,3.2-5,5.4c-1.3,2.7-2,5.7-1.9,8.8v6.3c-0.1,3,0.5,6.1,1.9,8.8c1.1,2.2,2.8,4.1,5,5.2
	c2.1,1.1,4.5,1.7,6.8,1.7c2.6,0.2,5.2-0.6,7.4-2c1.7-1.3,3.1-2.9,4-4.9h23.3c-1.1,4.6-3.3,9-6.3,12.6c-3.2,3.8-7.2,6.8-11.7,8.8
	c-11.1,4.7-23.7,4.3-34.4-1.2c-5.4-3-9.8-7.4-12.8-12.7c-3.2-5.5-4.7-12-4.7-19.5c0-7.5,1.6-14,4.7-19.6c3-5.3,7.4-9.7,12.7-12.7
	c11.7-5.9,25.5-6,37.2-0.1c5.3,2.8,9.7,7.1,12.6,12.3c3.2,5.8,4.8,12.3,4.6,18.9c0,1,0,2.1-0.1,3.1s-0.2,2.2-0.4,3.3h-52.1v-12.2
	H1179.5z"/>
<path class="st2" d="M1235.3,764.7v71.4h-21.9v-71.4H1235.3z M1231.6,784.3c1.3-3.8,3.2-7.4,5.8-10.5c2.4-3,5.4-5.5,8.9-7.2
	c3.6-1.8,7.5-2.7,11.5-2.6v23.2h-5.9c-2.4,0-4.8,0.2-7.1,0.8c-1.9,0.4-3.7,1.3-5.1,2.6c-1.4,1.3-2.5,3-3.1,4.9
	c-0.8,2.5-1.2,5.2-1.2,7.8l-5.8-6.7C1229.5,792.3,1230.2,788.2,1231.6,784.3z"/>
<path class="st2" d="M1304.2,764.7v18.2h-41.7v-18.2H1304.2z M1278.8,741.8c5.6-4.6,13.9-6.6,24.8-6v18.4c-4.2-0.2-7.1,0.5-8.8,1.9
	c-1.7,1.5-2.5,4.1-2.5,7.8v72.1h-22v-73.4C1270.4,753.3,1273.2,746.4,1278.8,741.8L1278.8,741.8z"/>
<path class="st2" d="M1339.2,814.7c2.6,2.6,6.2,4.1,9.9,3.9c2.6,0.1,5.1-0.5,7.4-1.7c2.1-1.2,3.8-2.9,4.8-5.1
	c1.2-2.6,1.7-5.4,1.7-8.2l2.7,17.8c-1.1,3-2.8,5.7-5,7.9c-2.4,2.4-5.3,4.3-8.4,5.6c-3.4,1.5-7.1,2.2-10.9,2.1
	c-5,0.1-10-1.2-14.4-3.7c-4.2-2.5-7.6-6.1-9.7-10.5c-2.5-5.1-3.7-10.7-3.5-16.3v-41.7h21.9v38.8
	C1335.5,808.3,1336.8,812.1,1339.2,814.7z M1362.9,836.1v-71.4h21.8v71.4H1362.9z"/>
<path class="st2" d="M1422.4,741.4v94.7h-21.9v-94.7H1422.4z"/>
<path class="st0" d="M1439.1,833.7c-2.3-2.1-3.7-5.2-3.6-8.3c-0.1-3.2,1.2-6.4,3.6-8.6c2.6-2.4,6-3.6,9.5-3.5
	c3.4-0.2,6.8,1.1,9.3,3.5c2.3,2.2,3.6,5.4,3.5,8.6c0.1,3.1-1.2,6.2-3.5,8.3c-2.5,2.3-5.9,3.5-9.3,3.3
	C1445.1,837.2,1441.7,836,1439.1,833.7z"/>
<path class="st1" d="M830,70.3v289.2c0,14.9-9.8,29.7-29.5,41.1c-39.4,22.7-103.2,22.7-142.5,0c-19.7-11.4-29.5-26.2-29.5-41.1V70.3
	H830z"/>
<path class="st3" d="M830,58.1v289.2c0,14.9-9.8,29.7-29.5,41.1c-39.4,22.7-103.2,22.7-142.5,0c-19.7-11.4-29.5-26.2-29.5-41.1V58.1
	H830z"/>
<path class="st1" d="M830,58.1v49.6c0,14.9-9.8,29.7-29.5,41.1c-39.4,22.7-103.2,22.7-142.5,0c-19.7-11.4-29.5-26.2-29.5-41.1V58.1
	H830z"/>
<ellipse class="st3" cx="729.3" cy="58.2" rx="100.8" ry="58.2"/>
<path class="st1" d="M789.6,93c-33.3,19.2-87.3,19.2-120.6,0s-33.3-50.4,0-69.6s87.3-19.2,120.6,0S822.9,73.8,789.6,93z"/>
<path class="st1" d="M812.5,170.5v179.5c-3.7,3.1-7.7,5.9-12,8.4c-11.2,6.5-24.5,11.1-38.7,13.9V192.8c14.1-2.8,27.4-7.4,38.7-13.9
	C804.8,176.4,808.8,173.6,812.5,170.5z"/>
<path class="st1" d="M736.6,195.6v179.4c-28.2,1.3-57.1-4.4-78.6-16.8c-19.7-11.4-29.5-26.2-29.5-41.1V137.7
	c0,14.9,9.8,29.7,29.5,41.1C679.6,191.3,708.5,196.9,736.6,195.6z"/>
<path class="st3" d="M658.1,195.2c0.5,0.3,0.9,0.6,1.4,0.8v75.4c-0.5-0.2-1-0.5-1.4-0.8c-4.9-2.8-9.5-6.1-13.7-9.8v-75.4
	C648.6,189.1,653.2,192.4,658.1,195.2z"/>
<path class="st3" d="M715.3,211.6v138.1c-13.9-1-27.6-3.9-40.7-8.6V203C687.7,207.7,701.4,210.6,715.3,211.6z"/>
<path class="st4" d="M752.9,46v11.6c0,3.5-2.3,7-6.9,9.6c-9.2,5.3-24.2,5.3-33.4,0c-4.6-2.7-6.9-6.2-6.9-9.6V46H752.9z"/>
<path class="st3" d="M746,55.7c-9.2,5.3-24.2,5.3-33.4,0s-9.2-14,0-19.3s24.2-5.3,33.4,0S755.2,50.3,746,55.7z"/>
<polygon class="st3" points="741.5,136.2 732.7,136.2 732.7,127.3 725.8,127.3 725.8,136.2 717,136.2 717,143 725.8,143 
	725.8,151.9 732.7,151.9 732.7,143 741.5,143 "/>
</svg>
