<svg xmlns="http://www.w3.org/2000/svg" viewBox="0 0 27.44 25.46"><defs><style>.a,.b,.c,.d,.e{fill:none;stroke:#007aff;stroke-linecap:round;stroke-linejoin:round;}.a{stroke-width:0.97px;}.b{stroke-width:0.97px;}.c{stroke-width:0.97px;}.d{stroke-width:0.97px;}.e{stroke-width:0.97px;}</style></defs><path class="a" d="M16.49,15.65a7.59,7.59,0,0,1,.1,1.27,8.05,8.05,0,1,1-8-8.06l.51,0"/><path class="b" d="M16.48,15.61c-1.28,1-4.36,1.66-7.94,1.66S1.88,16.58.59,15.61"/><path class="a" d="M11.58,12.41a17.41,17.41,0,0,1-3,.26c-2.73,0-5-.57-5.8-1.34m8.83,1.07a15.37,15.37,0,0,1,.62,4.52c0,4.44-1.63,8-3.65,8s-3.65-3.61-3.65-8S6.52,8.86,8.54,8.86"/><path class="c" d="M16.08,19.69c-.77,1.08-3.85,1.89-7.54,1.89S1.77,20.77,1,19.69"/><path class="a" d="M14.46.49h8.87A3.63,3.63,0,0,1,27,4.11V7.47a3.63,3.63,0,0,1-3.62,3.63H20.87l-6.2,2.75L16,11.1h-1.5a3.64,3.64,0,0,1-3.63-3.63V4.11A3.63,3.63,0,0,1,14.46.49ZM13.8,4.24h3.56A6.76,6.76,0,0,1,13.8,7.68m1.78-3.44V3.09"/><path class="d" d="M15.9,6.3a8.11,8.11,0,0,0,1.64,1.41"/><path class="e" d="M19.91,7.68l1.66-4.27h.76L24,7.68M20.56,6h2.78"/></svg>