<svg xmlns="http://www.w3.org/2000/svg" viewBox="0 0 616.79 149.6"><defs><style>.a{fill:#007aff;}</style></defs><path class="a" d="M141.2,148H105L63.8,25.6H77.2L35.8,148H0L50.8,7.6H90.4ZM107.4,96.8l8.6,26.6H21.8l8.8-26.6Z"/><path class="a" d="M250.2,41.7a47.94,47.94,0,0,1,17.7,19.8q6.5,12.9,6.5,30.5t-6.5,30.5a49.33,49.33,0,0,1-17.7,20,47.76,47.76,0,0,1-39.7,4.8,38.45,38.45,0,0,1-11.6-6.2,36.42,36.42,0,0,1-8.1-8.9V148H156.6V0h34.2V52.4a34.86,34.86,0,0,1,8.1-9.1,38.45,38.45,0,0,1,11.6-6.2,45.76,45.76,0,0,1,14.9-2.3A46.35,46.35,0,0,1,250.2,41.7ZM203.1,67.8a24.56,24.56,0,0,0-9,9.3q-3.49,6.11-3.5,15.1a30.09,30.09,0,0,0,3.5,15,24.43,24.43,0,0,0,9,9.4,23.67,23.67,0,0,0,12.1,3.2,23.22,23.22,0,0,0,12-3.3,24.35,24.35,0,0,0,9-9.5,30.73,30.73,0,0,0,3.4-15q0-9-3.4-15a23.89,23.89,0,0,0-21-12.4A23.67,23.67,0,0,0,203.1,67.8Z"/><path class="a" d="M313.9,142.6a51.42,51.42,0,0,1-20.6-19.9q-7.5-12.9-7.5-30.5,0-17.81,7.6-30.6a52.16,52.16,0,0,1,20.8-19.8,65.87,65.87,0,0,1,59.1,0A52.42,52.42,0,0,1,394,61.6q7.59,12.79,7.6,30.6,0,17.6-7.7,30.5a52.57,52.57,0,0,1-21,19.9,62.76,62.76,0,0,1-29.7,7A61.13,61.13,0,0,1,313.9,142.6Zm40.8-25.7a23.63,23.63,0,0,0,8.7-9.3q3.39-6.19,3.4-15.4,0-9.6-3.3-15.7a22.53,22.53,0,0,0-31.2-9.1,22.24,22.24,0,0,0-8.6,9.1q-3.3,6.1-3.3,15.7,0,9.19,3.2,15.4a22.73,22.73,0,0,0,8.3,9.3,21.29,21.29,0,0,0,11.3,3.1A22.37,22.37,0,0,0,354.7,116.9Z"/><path class="a" d="M458.8,114.5q5.79,6.1,15.39,6.1a23.41,23.41,0,0,0,11.5-2.7,17.81,17.81,0,0,0,7.5-8A29,29,0,0,0,495.8,97L500,124.8a32.66,32.66,0,0,1-7.89,12.3A41.72,41.72,0,0,1,462,149.2a43.6,43.6,0,0,1-22.5-5.7,39.38,39.38,0,0,1-15.19-16.4q-5.51-10.69-5.5-25.5V36.4H453V97Q453,108.4,458.8,114.5Zm37,33.5V36.4h34V148Z"/><path class="a" d="M546.4,36.4h70.2V64.6H546.4ZM594.4,9V109.6c0,3.33.73,5.77,2.2,7.3s4.19,2.3,8.19,2.3h12V148H599.4a53.73,53.73,0,0,1-20.3-3.6,28.24,28.24,0,0,1-14-12.2q-5.11-8.59-5.11-23V9Z"/></svg>