<svg xmlns="http://www.w3.org/2000/svg" viewBox="0 0 604.59 149.8"><defs><style>.a{fill:#007aff;}</style></defs><path class="a" d="M133,148H103.4L60.4,23.2h12L29.2,148H0L50.2,8.2H82.6ZM102.2,99.2l7.4,22H21.2l7.2-22Z"/><path class="a" d="M242,42.4a50.45,50.45,0,0,1,18.2,19.8Q267,75,267,92.2t-6.8,30.2A51.55,51.55,0,0,1,242,142.6a47,47,0,0,1-25.6,7.2,46,46,0,0,1-15.6-2.5,47.63,47.63,0,0,1-12.3-6.4,38.18,38.18,0,0,1-8.7-8.7V148H151.6V0h28.2V53.4a40,40,0,0,1,8.9-9.2,43.35,43.35,0,0,1,12.4-6.4A50.19,50.19,0,0,1,242,42.4ZM194.9,63.6A28.88,28.88,0,0,0,184,74.8a35.08,35.08,0,0,0-4.2,17.6q0,10.6,4.2,17.9a29,29,0,0,0,10.9,11.1,28.62,28.62,0,0,0,28.5,0,29,29,0,0,0,10.8-11.3q4.2-7.5,4.2-17.9,0-10.61-4.2-17.8A28.39,28.39,0,0,0,209,59.8,28.16,28.16,0,0,0,194.9,63.6Z"/><path class="a" d="M307.9,142.7a53.08,53.08,0,0,1-20.2-19.9q-7.5-12.8-7.5-30.4t7.6-30.3a52.65,52.65,0,0,1,20.6-19.7,63.36,63.36,0,0,1,57.9,0,52.93,52.93,0,0,1,20.5,19.7q7.59,12.7,7.6,30.3t-7.7,30.4a53.61,53.61,0,0,1-20.9,19.9,60.71,60.71,0,0,1-29.2,7.1A57.81,57.81,0,0,1,307.9,142.7Zm42.7-21a27.63,27.63,0,0,0,10.9-10.9q4.29-7.39,4.3-18.4t-4.2-18.3a27.31,27.31,0,0,0-10.7-10.8,29.15,29.15,0,0,0-27.7,0,26.16,26.16,0,0,0-10.4,10.8q-4,7.31-4,18.3t3.8,18.4a24.92,24.92,0,0,0,10.2,10.9,28.31,28.31,0,0,0,13.8,3.5A29.5,29.5,0,0,0,350.6,121.7Z"/><path class="a" d="M448.59,118.6q6.8,6.8,18,6.8a27.54,27.54,0,0,0,13.2-3,20,20,0,0,0,8.6-9.1q3-6.1,3-15.1l5,26.2a30.46,30.46,0,0,1-7.8,13,40.63,40.63,0,0,1-13.3,8.8,43.67,43.67,0,0,1-16.9,3.2,46.91,46.91,0,0,1-23-5.5,38.89,38.89,0,0,1-15.7-16.1q-5.7-10.6-5.7-25.6v-65h27.8v61Q441.79,111.81,448.59,118.6Zm42.8,29.4V37.2h28.2V148Z"/><path class="a" d="M538.39,37.2h66.2V60.4h-66.2Zm41.4-27.4v104q0,5.6,2.6,8.1t9,2.5h13.2V148H587a47.75,47.75,0,0,1-18.5-3.3,25.7,25.7,0,0,1-12.4-10.8q-4.5-7.5-4.5-20.3V9.8Z"/></svg>