<svg xmlns="http://www.w3.org/2000/svg" viewBox="0 0 1201.78 244.2"><defs><style>.a{fill:#007aff;}</style></defs><path class="a" d="M133,191.4H103.4L60.4,66.6h12L29.2,191.4H0L50.2,51.6H82.6Zm-30.8-48.8,7.4,22H21.2l7.2-22ZM88.4,23.8V43.6l-46-21V0Z"/><path class="a" d="M289.6,85.8a50.45,50.45,0,0,1,18.2,19.8q6.79,12.8,6.8,30t-6.8,30.2A51.55,51.55,0,0,1,289.6,186a47,47,0,0,1-25.6,7.2,44.55,44.55,0,0,1-15.6-2.6,47.72,47.72,0,0,1-12.3-6.6,45.41,45.41,0,0,1-8.7-8.4v68.6H199.2V80.6h28.2v16a40,40,0,0,1,8.7-8.8,45.6,45.6,0,0,1,27.9-9A47.93,47.93,0,0,1,289.6,85.8ZM242.5,107a28.88,28.88,0,0,0-10.9,11.2,35.08,35.08,0,0,0-4.2,17.6q0,10.6,4.2,17.9a29,29,0,0,0,10.9,11.1,28.62,28.62,0,0,0,28.5,0,29,29,0,0,0,10.8-11.3q4.2-7.5,4.2-17.9,0-10.6-4.2-17.8a28.39,28.39,0,0,0-25.2-14.6A28.16,28.16,0,0,0,242.5,107Z"/><path class="a" d="M363,80.6V191.4h-28.2V80.6Zm-4.89,28.3a51.38,51.38,0,0,1,8.19-15.5A36.86,36.86,0,0,1,379.4,82.8,39.68,39.68,0,0,1,397,79v29.4H389.6a41.61,41.61,0,0,0-11.2,1.4,19.43,19.43,0,0,0-8.3,4.5,20.91,20.91,0,0,0-5.2,8.5A40.67,40.67,0,0,0,363,136.2l-7.8-9A57.31,57.31,0,0,1,358.1,108.9Z"/><path class="a" d="M436.29,186.1a53.08,53.08,0,0,1-20.2-19.9q-7.5-12.8-7.5-30.4t7.6-30.3a52.72,52.72,0,0,1,20.6-19.7,63.36,63.36,0,0,1,57.9,0,52.93,52.93,0,0,1,20.5,19.7q7.6,12.7,7.6,30.3t-7.7,30.4a53.54,53.54,0,0,1-20.9,19.9,60.68,60.68,0,0,1-29.2,7.1A57.83,57.83,0,0,1,436.29,186.1Zm42.7-21a27.63,27.63,0,0,0,10.9-10.9q4.31-7.39,4.3-18.4T490,117.5a27.31,27.31,0,0,0-10.7-10.8,29.15,29.15,0,0,0-27.7,0,26.23,26.23,0,0,0-10.4,10.8q-4,7.31-4,18.3t3.8,18.4a24.92,24.92,0,0,0,10.2,10.9,28.36,28.36,0,0,0,13.8,3.5A29.5,29.5,0,0,0,479,165.1Z"/><path class="a" d="M633.59,85.8a50.37,50.37,0,0,1,18.2,19.8q6.8,12.8,6.8,30t-6.8,30.2a51.48,51.48,0,0,1-18.2,20.2,46.93,46.93,0,0,1-25.6,7.2,44.63,44.63,0,0,1-15.6-2.6,47.72,47.72,0,0,1-12.3-6.6,46,46,0,0,1-8.7-8.4v68.6h-28.2V80.6h28.2v16a40.43,40.43,0,0,1,8.7-8.8,45.6,45.6,0,0,1,27.9-9A47.9,47.9,0,0,1,633.59,85.8ZM586.49,107a28.88,28.88,0,0,0-10.9,11.2,35.08,35.08,0,0,0-4.2,17.6q0,10.6,4.2,17.9a29,29,0,0,0,10.9,11.1,28.62,28.62,0,0,0,28.5,0,29,29,0,0,0,10.8-11.3q4.2-7.5,4.2-17.9,0-10.6-4.2-17.8a28.39,28.39,0,0,0-25.2-14.6A28.22,28.22,0,0,0,586.49,107Z"/><path class="a" d="M699.49,186.1a53.08,53.08,0,0,1-20.2-19.9q-7.5-12.8-7.5-30.4t7.6-30.3A52.65,52.65,0,0,1,700,85.8a63.36,63.36,0,0,1,57.9,0,52.93,52.93,0,0,1,20.5,19.7q7.59,12.7,7.6,30.3t-7.7,30.4a53.61,53.61,0,0,1-20.9,19.9,60.71,60.71,0,0,1-29.2,7.1A57.81,57.81,0,0,1,699.49,186.1Zm42.7-21a27.63,27.63,0,0,0,10.9-10.9q4.29-7.39,4.3-18.4t-4.2-18.3a27.31,27.31,0,0,0-10.7-10.8,29.15,29.15,0,0,0-27.7,0,26.16,26.16,0,0,0-10.4,10.8q-4,7.31-4,18.3t3.8,18.4a24.92,24.92,0,0,0,10.2,10.9,28.31,28.31,0,0,0,13.8,3.5A29.5,29.5,0,0,0,742.19,165.1Z"/><path class="a" d="M824.29,188.3a42.81,42.81,0,0,1-16.9-13.2,33.8,33.8,0,0,1-6.8-18.7H829q.39,6.19,5.9,10.5t13.9,4.3a25.11,25.11,0,0,0,9.2-1.5,13.66,13.66,0,0,0,5.8-4,9.18,9.18,0,0,0,2-5.9,8.18,8.18,0,0,0-3.4-6.8,28.37,28.37,0,0,0-9-4.3q-5.61-1.69-12.3-3.3t-13.3-3.7a48.74,48.74,0,0,1-12.2-5.8,28.4,28.4,0,0,1-9-9.5q-3.4-5.81-3.4-14.4a28.23,28.23,0,0,1,5.3-16.7,36.77,36.77,0,0,1,15-12q9.69-4.5,23.5-4.5,13.39,0,23.1,4.7a38.68,38.68,0,0,1,15.3,12.8,38.1,38.1,0,0,1,6.4,19.3H865a16,16,0,0,0-5.7-10.7q-4.9-4.09-13.1-4.1a23.59,23.59,0,0,0-8.7,1.4,11.91,11.91,0,0,0-5.3,3.8,9.08,9.08,0,0,0-1.8,5.6,8.52,8.52,0,0,0,3.3,6.9,25.76,25.76,0,0,0,8.8,4.4q5.49,1.69,12.1,3.4t13.2,3.9a52.21,52.21,0,0,1,12.1,5.8,30.37,30.37,0,0,1,9.1,9.3q3.6,5.7,3.6,14.7a29.17,29.17,0,0,1-5.2,16.8,35,35,0,0,1-15,12q-9.81,4.39-23.4,4.4Q835,193.2,824.29,188.3Z"/><path class="a" d="M1021,80.9a43.91,43.91,0,0,1,12.6,6A39.35,39.35,0,0,1,1043,96V43.4h28.4v148H1043V175.2a35.57,35.57,0,0,1-8.4,9,44,44,0,0,1-12.3,6.5,49.4,49.4,0,0,1-41.2-4.7,51.18,51.18,0,0,1-18.3-20.2q-6.79-13-6.8-30.2t6.8-30a50.1,50.1,0,0,1,18.3-19.8,48.42,48.42,0,0,1,25.7-7A49.18,49.18,0,0,1,1021,80.9Zm-21.3,26a28.52,28.52,0,0,0-10.9,10.9q-4.2,7.2-4.2,17.8,0,10.4,4.2,17.9a28.69,28.69,0,0,0,10.9,11.3,28.22,28.22,0,0,0,14.1,3.8,28.42,28.42,0,0,0,25.1-14.9q4.09-7.3,4.1-17.9a35.8,35.8,0,0,0-4.1-17.6,28.18,28.18,0,0,0-10.8-11.2,28.76,28.76,0,0,0-28.4-.1Z"/><path class="a" d="M1172.78,125.6a26.22,26.22,0,0,0-2.2-10,20.56,20.56,0,0,0-5.6-7.4,27.06,27.06,0,0,0-8.4-4.7,30.41,30.41,0,0,0-10.2-1.7,25.55,25.55,0,0,0-13.4,3.6,26.46,26.46,0,0,0-9.6,10.1q-3.6,6.5-3.6,16.1v9.2a32.55,32.55,0,0,0,3.6,15.8,24.62,24.62,0,0,0,9.7,10,27.24,27.24,0,0,0,13.5,3.4q9.2,0,14.4-3.9a24.81,24.81,0,0,0,7.8-9.5H1199a50.22,50.22,0,0,1-27.6,31.7,61.63,61.63,0,0,1-52.8-2.2,51.19,51.19,0,0,1-19.8-19.9q-7.2-12.8-7.2-30.4t7.1-30.3a50.18,50.18,0,0,1,19.6-19.7q12.49-7,28.9-7,16.2,0,28.3,6.8a50,50,0,0,1,19.2,19.2q7.1,12.4,7.1,29c0,1.73,0,3.47-.1,5.2a28.12,28.12,0,0,1-.7,5.2h-85l.2-18.6Z"/></svg>