<svg xmlns="http://www.w3.org/2000/svg" viewBox="0 0 755.6 165.2"><defs><style>.a{fill:#007aff;}</style></defs><path class="a" d="M33.4,5A328,328,0,0,0,22,90c0,25.4,4,48,12.2,67.8l-20.4,7.4C4.6,142.6,0,117.6,0,90A346.6,346.6,0,0,1,12.2,0ZM78.2,92c-7.8,11.6-11.6,20.8-11.6,27.6,0,5.8,4.4,10,13.4,12.8,7.6,2.4,19,3.6,33.8,3.6a369,369,0,0,0,45-3l1.2,21.4q-30.6,2.4-46.2,2.4c-23.4,0-40.6-2.8-51.8-8.2-12-5.8-17.8-15-17.8-27.8,0-10,4.6-23,13.8-38.8Zm73-49.6c-37,0-70.8,1-101.6,3.2L46.2,25Q99,21.4,152.4,21.4Z"/><path class="a" d="M340.8,40.2c12.6,10.8,19,25.2,19,43.2,0,25.2-10.4,43.8-30.8,55.8-18.8,11-47.4,17.2-86.2,18.6L237.6,137c35.6-1.6,61.2-6.4,76.6-14.8,14.8-8.4,22.4-21.2,22.4-38.6,0-11.6-4-20.8-11.8-27.8-8.4-7.6-20.2-11.2-35.4-11.2-20.4,0-53.6,5.8-99.4,17.6l-5.8-20.4q73.2-18.3,105.2-18.2C311,23.6,328,29,340.8,40.2Z"/><path class="a" d="M417.8,20.2a335.61,335.61,0,0,0-4.2,53.4q0,31.5,9,49.2c4.8,9.6,10.4,14.6,16.8,14.6,4.8,0,9.2-5.2,12.8-15.2a143.51,143.51,0,0,0,5.4-21l21.8,5.4c-4.2,18-9.4,31.2-15.4,39.6-6.4,8.6-14.4,13-24,13q-23.1,0-36-22.8c-8.6-15.2-12.8-36.2-12.8-62.8a369.92,369.92,0,0,1,4.4-56.2ZM566.4,129.8l-22.2,1Q540.6,66.3,510,30.6l17.6-13.2C551,44.6,564,82.2,566.4,129.8Z"/><path class="a" d="M755.6,31.2l-37.8,1.4c-5.4,0-12.6,3.2-21.4,9.6a91.29,91.29,0,0,0-24.2,24.6c-7.8,11.2-11.6,22.4-11.6,33.8,0,12,5.6,21.8,17.2,29.2,12.8,8,32.2,12.6,58,13.4L732,162.8c-31.8-.4-55.6-6.4-71.6-17.6-14.6-10.4-21.8-24.8-21.8-43.2a65.64,65.64,0,0,1,14.2-41.2c7.2-9.8,17-18.8,29.8-27.2-32,2.6-62.2,5.6-90.2,9.2l-2.8-20.2C650,15.8,705.2,12.4,755.2,12Z"/></svg>