<svg xmlns="http://www.w3.org/2000/svg" viewBox="0 0 334.8 178.2"><defs><style>.a{fill:#007aff;}</style></defs><path class="a" d="M12.2,11.4H106v17H70.4V29c0,26.6,19.8,46.2,40.6,52.6L99.6,97.8C85,92,67.4,78,59.8,61.4,54.6,78.8,35.4,96.2,17.6,103L5.2,87c25-9.2,44-30.6,44-57V28.4h-37ZM93.4,178.2c-38.4,0-60.4-14-60.4-35,0-21.4,22-35.4,60.4-35.4,38.6,0,60.8,14,60.8,35.4C154.2,164.2,132,178.2,93.4,178.2Zm-39.2-35c0,11.6,14.6,18.4,39.2,18.4,25.2,0,39.8-6.8,39.8-18.4,0-11.8-14.6-18.6-39.8-18.6C68.8,124.6,54.2,131.4,54.2,143.2Zm49-100h29V0h20.6V107.2H132.2v-47h-29Z" transform="translate(-5.2 0)"/><path class="a" d="M269.4,102.6v36.6H340v16.4H179V139.2h70V102.6H199.2V12.8h20.4V41.4h79.8V12.6h20.4v90Zm30-45H219.6V86.2h79.8Z" transform="translate(-5.2 0)"/></svg>