<svg xmlns="http://www.w3.org/2000/svg" viewBox="0 0 379.8 186"><defs><style>.a{fill:#007aff;}</style></defs><path class="a" d="M87,41.2,75.4,47h39.4c7.2-11.2,13.4-24.6,18.8-39.8L154,12.8A179.51,179.51,0,0,1,138.2,47h37V67.4H110.6v4.8a203,203,0,0,1-2.8,26h79v20.4h-69c9.6,23,34.4,41.2,74,54.8l-12.4,19.8Q117.6,168,100,126.8a126.16,126.16,0,0,1-12.6,23q-20.4,27-66.6,41.4L9.4,173c30.8-10,51.4-22.6,62.2-37.6a95.6,95.6,0,0,0,8.8-16.8H13.2V98.2H86.4a171.82,171.82,0,0,0,3-26V67.4H24.6V47H66.2a240.31,240.31,0,0,0-20-29.2L65.4,8.6A384,384,0,0,1,87,41.2Z" transform="translate(-9.4 -7.2)"/><path class="a" d="M375.4,14V34.4H312.2V80.8h77v20.8h-77v67.2c0,14.4-7.6,21.8-22.8,21.8h-32L253,170.4c10.2.8,20,1.2,29.2,1.2,6,0,9-2.8,9-8.2V101.6H210.8V80.8h80.4V34.4h-68V14Z" transform="translate(-9.4 -7.2)"/></svg>