<svg xmlns="http://www.w3.org/2000/svg" viewBox="0 0 379.8 186"><defs><style>.a{fill:#bfdeff;}</style></defs><path class="a" d="M77.6,34,66,39.8h39.4c7.2-11.2,13.4-24.6,18.8-39.8l20.4,5.6a179.51,179.51,0,0,1-15.8,34.2h37V60.2H101.2V65a203,203,0,0,1-2.8,26h79v20.4h-69c9.6,23,34.4,41.2,74,54.8L170,186q-61.8-25.2-79.4-66.4a126.16,126.16,0,0,1-12.6,23q-20.4,27-66.6,41.4L0,165.8c30.8-10,51.4-22.6,62.2-37.6A95.6,95.6,0,0,0,71,111.4H3.8V91H77a171.82,171.82,0,0,0,3-26V60.2H15.2V39.8H56.8a240.31,240.31,0,0,0-20-29.2L56,1.4A384,384,0,0,1,77.6,34Z"/><path class="a" d="M366,6.8V27.2H302.8V73.6h77V94.4h-77v67.2c0,14.4-7.6,21.8-22.8,21.8H248l-4.4-20.2c10.2.8,20,1.2,29.2,1.2,6,0,9-2.8,9-8.2V94.4H201.4V73.6h80.4V27.2h-68V6.8Z"/></svg>